<svg width="52" height="52" viewBox="0 0 52 52" fill="none" xmlns="http://www.w3.org/2000/svg">
<path d="M44.3508 15.9684C44.3508 15.9684 44.3508 15.9684 44.3508 15.7951L44.2208 15.4701C44.1756 15.4011 44.1249 15.3359 44.0692 15.2751C44.0112 15.1834 43.946 15.0964 43.8742 15.0151L43.6792 14.8634L43.3325 14.6901L27.0825 4.65844C26.7382 4.44322 26.3403 4.3291 25.9342 4.3291C25.5281 4.3291 25.1302 4.44322 24.7858 4.65844L8.66584 14.6901L8.47084 14.8634L8.27584 15.0151C8.20402 15.0964 8.13881 15.1834 8.08084 15.2751C8.02514 15.3359 7.97442 15.4011 7.92917 15.4701L7.79917 15.7951C7.79917 15.7951 7.79917 15.7951 7.79917 15.9684C7.77788 16.1556 7.77788 16.3446 7.79917 16.5318V35.4684C7.79844 35.8367 7.89155 36.199 8.06973 36.5212C8.24791 36.8434 8.50526 37.115 8.81751 37.3101L25.0675 47.3418C25.1675 47.4035 25.2775 47.4475 25.3925 47.4718C25.3925 47.4718 25.5008 47.4718 25.5658 47.4718C25.9324 47.588 26.326 47.588 26.6925 47.4718C26.6925 47.4718 26.8008 47.4718 26.8658 47.4718C26.9809 47.4475 27.0908 47.4035 27.1908 47.3418L43.3325 37.3101C43.6448 37.115 43.9021 36.8434 44.0803 36.5212C44.2585 36.199 44.3516 35.8367 44.3508 35.4684V16.5318C44.3721 16.3446 44.3721 16.1556 44.3508 15.9684ZM23.8325 41.6218L11.9158 34.2551V20.4318L23.8325 27.7768V41.6218ZM25.9992 24.0284L13.8658 16.5318L25.9992 9.05677L38.1325 16.5318L25.9992 24.0284ZM40.0825 34.2551L28.1658 41.6218V27.7768L40.0825 20.4318V34.2551Z" fill="#DC783F"/>
</svg>
