<svg width="52" height="52" viewBox="0 0 52 52" fill="none" xmlns="http://www.w3.org/2000/svg">
<path d="M23.8327 19.5003H32.4994C33.074 19.5003 33.6251 19.2721 34.0314 18.8657C34.4378 18.4594 34.666 17.9083 34.666 17.3337C34.666 16.759 34.4378 16.2079 34.0314 15.8016C33.6251 15.3953 33.074 15.167 32.4994 15.167H28.166V13.0003C28.166 12.4257 27.9378 11.8746 27.5314 11.4683C27.1251 11.0619 26.574 10.8337 25.9994 10.8337C25.4247 10.8337 24.8736 11.0619 24.4673 11.4683C24.061 11.8746 23.8327 12.4257 23.8327 13.0003V15.167C22.1088 15.167 20.4555 15.8518 19.2365 17.0708C18.0175 18.2898 17.3327 19.9431 17.3327 21.667C17.3327 23.3909 18.0175 25.0442 19.2365 26.2632C20.4555 27.4822 22.1088 28.167 23.8327 28.167H28.166C28.7407 28.167 29.2918 28.3953 29.6981 28.8016C30.1044 29.2079 30.3327 29.759 30.3327 30.3337C30.3327 30.9083 30.1044 31.4594 29.6981 31.8657C29.2918 32.2721 28.7407 32.5003 28.166 32.5003H19.4994C18.9247 32.5003 18.3736 32.7286 17.9673 33.1349C17.561 33.5413 17.3327 34.0924 17.3327 34.667C17.3327 35.2416 17.561 35.7927 17.9673 36.1991C18.3736 36.6054 18.9247 36.8337 19.4994 36.8337H23.8327V39.0003C23.8327 39.575 24.061 40.1261 24.4673 40.5324C24.8736 40.9387 25.4247 41.167 25.9994 41.167C26.574 41.167 27.1251 40.9387 27.5314 40.5324C27.9378 40.1261 28.166 39.575 28.166 39.0003V36.8337C29.8899 36.8337 31.5432 36.1488 32.7622 34.9299C33.9812 33.7109 34.666 32.0576 34.666 30.3337C34.666 28.6098 33.9812 26.9565 32.7622 25.7375C31.5432 24.5185 29.8899 23.8337 28.166 23.8337H23.8327C23.2581 23.8337 22.707 23.6054 22.3006 23.1991C21.8943 22.7927 21.666 22.2416 21.666 21.667C21.666 21.0924 21.8943 20.5413 22.3006 20.1349C22.707 19.7286 23.2581 19.5003 23.8327 19.5003V19.5003ZM25.9994 2.16699C21.2856 2.16699 16.6776 3.56479 12.7583 6.18363C8.8389 8.80247 5.78412 12.5247 3.98023 16.8797C2.17634 21.2347 1.70436 26.0268 2.62398 30.65C3.54359 35.2732 5.8135 39.5199 9.14665 42.853C12.4798 46.1862 16.7265 48.4561 21.3497 49.3757C25.9729 50.2953 30.765 49.8233 35.12 48.0195C39.475 46.2156 43.1972 43.1608 45.8161 39.2414C48.4349 35.322 49.8327 30.7141 49.8327 26.0003C49.8327 19.6793 47.3217 13.6172 42.8521 9.14761C38.3825 4.678 32.3204 2.16699 25.9994 2.16699V2.16699ZM25.9994 45.5003C22.1426 45.5003 18.3725 44.3567 15.1657 42.214C11.959 40.0713 9.45962 37.0258 7.98371 33.4627C6.5078 29.8995 6.12164 25.9787 6.87405 22.1961C7.62646 18.4134 9.48365 14.9389 12.2108 12.2117C14.9379 9.48462 18.4125 7.62742 22.1951 6.87501C25.9777 6.1226 29.8985 6.50877 33.4617 7.98467C37.0248 9.46058 40.0703 11.9599 42.213 15.1667C44.3557 18.3735 45.4994 22.1436 45.4994 26.0003C45.4994 31.172 43.4449 36.1319 39.7879 39.7889C36.131 43.4459 31.1711 45.5003 25.9994 45.5003V45.5003Z" fill="#DC783F"/>
</svg>
